<?xml version="1.0" encoding="utf-8"?>
<!-- Generator: Adobe Illustrator 24.0.2, SVG Export Plug-In . SVG Version: 6.00 Build 0)  -->
<svg version="1.1" id="Capa_1" xmlns="http://www.w3.org/2000/svg" xmlns:xlink="http://www.w3.org/1999/xlink" x="0px" y="0px"
	 viewBox="0 0 1200 1200" enable-background="new 0 0 1200 1200" xml:space="preserve">
<g>
	<path fill="#FFF6F3" d="M472.723,825.164c-132.355-22.71-265.47-66.474-385.916-101.702c-6.173-0.958-10.19-7.184-9.951-12.372
		c-1.33,0.479-2.634,0.984-3.991,1.437c-11.334-4.683,2.395-10.962,8.062-12.745c4.31-2.634,8.594-5.348,12.904-8.115
		c-0.338-0.338-0.672-0.679-1.01-1.016c24.699-7.779,49.078-17.986,68.857-32.821c93.123-58.534,172.943-119.73,274.048-151.658
		c-58.535,50.553-85.141,133.033-58.535,207.531C395.767,761.471,440.809,788.066,472.723,825.164z M736.38,822.791
		c5.321-2.661,13.303-10.643,18.625-13.303c85.141-39.91,167.622-77.159,226.156-156.979c0.826-0.826,2.167-2.167,3.861-3.541
		c-14.269-7.233-22.928-24.128-33.128-36.369c-10.643-10.643-29.267-7.982-39.91-18.625
		c-50.552-71.838-138.354-79.82-215.513-103.766c37.249,53.213,87.802,101.105,71.838,172.943
		c-10.643,45.231-21.285,82.48-45.231,119.73c-14.102,21.154-35.205,34.143-55.582,48.234
		C690.658,833.837,715.964,838.103,736.38,822.791z M675.185,559.386c-52.553-35.035-142.76-67.705-186.507-5.049
		c0.089-0.09,0.171-0.183,0.26-0.272c-0.089,0.089-0.172,0.182-0.26,0.272c-2.764,3.959-5.349,8.287-7.721,13.031
		c2.372-4.744,4.957-9.072,7.721-13.031c-31.675,31.927-34.298,79.674-23.685,124.779c7.982,42.571,34.589,79.82,79.82,90.462
		c58.534,10.643,109.087-21.285,146.336-63.856C728.398,657.83,725.738,593.974,675.185,559.386z"/>
	<path fill="#7A9B5D" d="M696.47,490.208c2.007,0.623,4.024,1.229,6.044,1.831c-7.019-5.59-14.513-9.813-22.008-9.813
		c-84.199-4.953-170.7-2.973-250.927,29.503c-54.212,50.897-78.043,130.141-52.388,201.975
		c18.576,47.767,63.618,74.362,95.532,111.46c61.314,10.52,122.462,16.507,182.114,15.046c4.139-3.138,8.383-6.139,12.658-9.094
		c-0.986-0.116-1.974-0.234-2.952-0.342c0.978,0.109,1.966,0.227,2.952,0.342c20.378-14.091,41.48-27.08,55.582-48.234
		c23.946-37.249,34.589-74.498,45.231-119.73C784.272,591.314,733.72,543.422,696.47,490.208z M691.149,705.722
		c-37.249,42.571-87.802,74.498-146.336,63.856c-45.231-10.643-71.838-47.892-79.82-90.462
		c-10.613-45.105-7.99-92.851,23.685-124.779c43.747-62.655,133.954-29.986,186.507,5.049
		C725.738,593.974,728.398,657.83,691.149,705.722z"/>
	<path fill="#E5CABE" d="M1150,695c-6.868,3.019-14.762,3.639-22.019,1.732c3.611,9.055,4.79,19.067,3.379,28.713
		c-8.232-8.773-13.62-20.172-15.174-32.101c-5.616,2.714-11.735,4.38-17.951,4.888c3.731,2.123,7.463,4.246,11.194,6.368
		c-37.633,3.016-71.787-35.765-106.937-6.05c-1.826,1.544-3.656,3.429-3.889,5.809c-0.252,2.576,1.429,4.898,3.023,6.938
		c6.136,7.855,12.273,15.71,18.409,23.565c7.535-5.949,19.77-2.374,24.869,5.76c5.099,8.134,4.054,18.986-0.341,27.522
		c-4.395,8.535-11.653,15.201-18.974,21.412c-107.829,91.499-262.435,125.837-398.715,87.703
		c-5.721-1.601-12.683-5.102-12.031-11.007c0.577-5.225,6.747-7.557,11.886-8.665c30.508-6.574,61.834-9.339,93.022-8.21
		c4.335,0.157,9.021,0.294,12.592-2.17s4.719-8.651,1.018-10.913c-24.84,0.647-49.679,1.293-74.519,1.94
		c106.327-13.009,197.85-78.506,284.023-142.137c13.232-9.77,27.15-20.45,32.694-35.936c16.465-45.991-47.15-42.852-63.589-66.206
		c-49.24-69.953-133.803-79.351-209.456-101.916c-7.019-5.59-14.513-9.813-22.008-9.813c-84.199-4.953-170.7-2.973-250.927,29.503
		c2.011-1.888,4.053-3.749,6.146-5.557C334.621,538.1,254.801,599.295,161.678,657.83c-24.011,15.092-53.464,42.527-81.405,19.542
		c-20.803-17.113-37.123-58.671-27.381-84.511c5.102-13.499,15.253-24.355,25.453-34.521c34.31-34.195,72.044-64.945,112.421-91.704
		c17.699-11.73,105.242-46.975,100.174-68.735c-20.706,8.958-40.899,18.156-62.791,24.19c15.746-26.074,59.307-22.965,74.877-49.163
		c4.821-8.112,7.886-19.575,17.206-21.06c0.662,8.323-1.118,16.826-5.064,24.185c14.207-4.341,25.589-16.864,28.557-31.42
		c4.617,4.35,5.209,12.303,1.287,17.288c15.577-1,26.569-9.861,37.566-19.571c1.526,2.531,1.173,4.595,1.246,7.536
		c2.989,0.589,5.978,1.178,8.967,1.767c-6.718,3.726-12.084,9.834-14.914,16.976c25.13-6.468,49.659-15.27,73.168-26.254
		c-8.849-0.554-17.697-1.108-26.546-1.662c11.439-4.314,22.104-8.027,31.299-14.964c4.286-3.233,4.731-9.486,10.125-12.324
		c0.612,2.511,0.832,14.942-2.622,15.725c5.743-1.303,11.512-2.658,17.334-3.775c4.576-6.093,8.381-21.232,17.268-19.982
		c5.747,5.029-3.885,12.212-5.295,17.693c11.228-0.958,23.547-6.385,34.456-2.395c8.966,13.516-32.7,10.882-40.282,13.809
		c-0.346,0.718-0.718,1.437-1.091,2.182c5.092-0.514,30.145-7.369,28.456,0.722c5.159-0.311,10.316-0.546,15.461-0.61
		c111.097-1.389,226.122,37.45,322.032,91.771c45.467,25.751,84.678,58.577,123.316,93.424
		c18.698,16.865,37.242,30.835,59.531,42.617c6.457,3.413,68.133,28.426,67.955,31.561c0.637-11.191,2.934-22.287,6.793-32.811
		c0.737-2.011,2.075-4.37,4.211-4.227c2.588,0.173,3.272,3.629,3.222,6.222c-0.417,21.441-7.508,54.471-1.465,74.865
		c2.451,8.271,10.553,12.955,12.618,22.18c1.546,6.905-4.538,16.375-3.28,21.244c0.056,0.218,0.104,0.438,0.161,0.655
		c0.701,2.667,14.179,4.67,21.375,7.962C1147.878,693.082,1149.284,693.986,1150,695z"/>
	<path fill="#2D1A13" d="M642.539,507.419c-3.485-0.692-6.119,4.284-2.554,6.093c14.793,7.982,26.873,18.891,36.637,31.688
		c-14.615-12.529-33.481-20.225-53.739-24.315c-25.267-5.102-52.67-4.554-76.762-0.717c-1.179,0.188-2.381,0.351-3.543,0.554
		c-1.543,0.186-3.086,0.372-4.603,0.612c-1.517,0.239-3.007,0.479-4.497,0.771c-0.904,0.16-1.809,0.346-2.687,0.532
		c-0.958,0.186-1.889,0.399-2.82,0.639c-1.171,0.266-2.315,0.559-3.459,0.878c-0.958,0.239-1.889,0.532-2.82,0.798
		c-1.304,0.399-2.607,0.798-3.858,1.25c-1.091,0.346-2.155,0.745-3.219,1.144c-0.772,0.293-1.517,0.585-2.235,0.878
		c-0.585,0.213-1.171,0.452-1.729,0.718c-5.428,2.288-10.456,4.975-15.166,8.035c-3.086,1.995-6.013,4.151-8.78,6.439
		c-0.931,0.745-1.862,1.517-2.74,2.315c-3.246,2.9-6.279,5.96-9.099,9.232c-0.426,0.505-0.878,1.011-1.304,1.517
		c-4.363,5.268-8.195,10.989-11.494,17.055c-1.144,2.102-2.208,4.23-3.219,6.385c-3.007,6.519-5.454,13.383-7.343,20.461
		c-0.612,2.395-1.171,4.816-1.676,7.264c-5.348,25.968-3.432,54.623,5.375,81.416c0.878,2.501,1.783,4.949,2.74,7.317
		c0.665,1.676,1.357,3.326,2.075,4.922c0.718,1.623,1.437,3.219,2.208,4.763c0.718,1.49,1.463,2.98,2.235,4.417
		c2.395,4.55,4.975,8.833,7.716,12.824c0.905,1.33,1.809,2.607,2.767,3.884c0.931,1.251,1.889,2.501,2.847,3.698
		s1.942,2.395,2.953,3.539c0.027,0.027,0.053,0.053,0.053,0.08c1.969,2.288,4.018,4.443,6.146,6.492
		c2.075,2.102,4.284,4.071,6.519,5.907c3.352,2.794,6.811,5.348,10.376,7.663c0.878,0.559,1.783,1.144,2.687,1.676
		c2.714,1.65,5.481,3.166,8.301,4.55c1.251,0.639,2.501,1.224,3.778,1.783c1.224,0.559,2.448,1.064,3.698,1.57
		c2.608,1.064,5.268,1.995,7.956,2.847c1.091,0.373,2.182,0.692,3.299,0.984c0.08,0.053,0.16,0.08,0.239,0.08
		c1.118,0.319,2.262,0.612,3.406,0.905c1.65,0.426,3.326,0.798,5.002,1.117c2.554,0.532,5.135,0.958,7.742,1.33
		c0.638,0.107,1.277,0.186,1.916,0.24c0.958,0.106,1.916,0.213,2.9,0.319c1.304,0.133,2.634,0.24,3.964,0.319
		c2.767,0.16,5.534,0.266,8.328,0.266c1.197,0,2.421-0.027,3.618-0.053c0.985-0.027,1.969-0.08,2.98-0.106
		c0.639-0.027,1.304-0.08,1.969-0.133c1.437-0.08,2.9-0.213,4.363-0.346c0.772-0.053,1.57-0.133,2.341-0.239
		c3.645-0.399,7.29-0.958,10.935-1.65c0.718-0.133,1.437-0.293,2.155-0.426c3.938-0.825,7.849-1.809,11.733-2.927
		c1.064-0.319,2.128-0.639,3.166-0.984c1.197-0.372,2.368-0.745,3.539-1.171c0.931-0.319,1.836-0.639,2.767-0.984
		c4.922-1.783,9.791-3.858,14.527-6.146c0.958-0.452,1.889-0.931,2.847-1.384c2.394-1.25,4.789-2.554,7.131-3.885
		c1.038-0.612,2.049-1.197,3.033-1.809c3.193-1.942,6.332-3.991,9.392-6.173c1.011-0.718,2.022-1.437,3.007-2.208
		c0.665-0.479,1.33-0.984,1.996-1.517c3.299-2.528,6.492-5.215,9.552-8.035c0.905-0.825,1.809-1.676,2.687-2.528
		c0.905-0.851,1.783-1.729,2.661-2.634c0.745-0.745,1.464-1.49,2.208-2.261c2.155-2.288,4.231-4.656,6.226-7.077
		c1.996-2.421,3.911-4.922,5.747-7.476c1.224-1.703,2.421-3.459,3.539-5.215c1.144-1.756,2.235-3.539,3.299-5.375
		c1.995-3.406,3.805-6.918,5.454-10.51c0.426-0.905,0.825-1.809,1.224-2.714c0.372-0.878,0.745-1.783,1.117-2.687
		c0.426-1.011,0.825-1.995,1.197-3.033c0.319-0.878,0.639-1.729,0.931-2.607c0.319-0.958,0.665-1.889,0.958-2.847
		c0.958-2.927,1.809-5.907,2.528-8.94c0.452-1.889,0.851-3.805,1.224-5.747c0.106-0.426,0.186-0.851,0.24-1.277
		c0.293-1.596,0.559-3.193,0.772-4.816c0.133,7.556-0.106,15.006-0.639,22.27c11.946,16.895,16.682-31.316,15.192-38.473
		C718.687,588.489,695.007,523.516,642.539,507.419z M675.717,662.961c3.113-1.277,6.226-2.581,9.392-3.778
		c-1.517,7.21-3.778,14.235-6.758,21.019C677.713,674.402,676.861,668.655,675.717,662.961z M686.972,646.252
		c-4.842,1.064-9.578,2.474-14.288,4.018c-0.825-2.927-1.729-5.827-2.82-8.674c5.827-2.102,11.281-3.805,17.481-5.88
		C687.424,639.255,687.238,642.767,686.972,646.252z M489.072,577.182c2.714-2.102,5.561-4.044,8.461-5.88
		c0.851,4.816,1.862,9.605,3.06,14.368c-3.113,1.41-6.253,2.847-9.339,4.284C490.402,585.722,489.684,581.465,489.072,577.182z
		 M651.798,606.316c-1.144-1.836-2.341-3.645-3.539-5.428c10.403-2.421,20.567-5.694,30.731-8.86
		c1.091,3.246,2.075,6.545,2.98,9.871C671.886,601.926,661.642,603.921,651.798,606.316z M684.045,610.333
		c0.798,3.725,1.49,7.476,2.049,11.228c-7.822,1.543-15.033,3.379-22.562,5.401c-1.596-3.246-3.299-6.412-5.082-9.552
		C666.937,614.803,675.451,612.355,684.045,610.333z M542.977,679.697c-3.459,1.969-6.918,3.911-10.297,5.96
		c-3.007-4.656-5.88-9.366-8.647-14.102c3.459-2.235,7.024-4.337,10.589-6.412C537.363,670.012,540.156,674.881,542.977,679.697z
		 M538.986,638.084c0.426-0.186,0.851-0.372,1.304-0.559c8.887-3.672,17.88-7.21,26.899-10.616c0.905,1.543,1.809,3.086,2.714,4.603
		c-9.366,3.751-18.625,7.822-27.644,12.346C541.168,641.942,540.05,640.026,538.986,638.084z M551.118,693.612
		c3.193,5.348,6.465,10.616,9.898,15.831c-2.741,1.65-5.481,3.273-8.195,4.975c-3.778-5.029-7.476-10.11-11.095-15.272
		C544.839,697.257,547.979,695.448,551.118,693.612z M558.462,671.076c-2.874-4.683-5.72-9.366-8.567-14.101
		c1.118-0.532,2.182-1.091,3.299-1.623c8.035-3.885,16.203-7.343,24.478-10.616c2.475,4.284,4.896,8.567,7.317,12.878
		C576.049,661.897,567.215,666.393,558.462,671.076z M592.784,671.848c2.474,4.709,4.896,9.445,7.237,14.181
		c-7.796,4.683-15.565,9.392-23.387,14.022c-3.379-5.029-6.572-10.137-9.738-15.299
		C575.357,680.149,584.057,675.972,592.784,671.848z M636.472,665.835c-7.29,3.752-14.447,7.556-21.551,11.574
		c-2.102-4.257-4.257-8.488-6.465-12.665c7.743-3.379,15.565-6.572,23.467-9.632C633.785,658.571,635.222,662.163,636.472,665.835z
		 M633.014,625.579c3.512-1.144,6.998-2.288,10.509-3.432c1.756,3.166,3.432,6.359,5.029,9.578
		c-3.113,1.064-6.199,2.128-9.286,3.246C637.217,631.805,635.142,628.665,633.014,625.579z M600.607,650.456
		c-2.235-3.938-4.523-7.876-6.838-11.76c7.556-2.687,15.192-5.242,22.828-7.769c2.208,3.352,4.443,6.705,6.652,10.057
		C615.639,643.964,608.057,647.077,600.607,650.456z M606.593,699.838c1.118,2.448,2.262,4.842,3.273,7.317
		c-6.758,3.219-13.463,6.572-19.955,10.27c-1.463-1.57-2.927-3.193-4.257-4.922C592.625,708.272,599.622,704.068,606.593,699.838z
		 M615.586,720.804c2.182,5.321,4.204,10.722,6.013,16.15c-0.931,0.452-1.836,0.931-2.767,1.357
		c-5.721-3.645-12.239-6.199-17.401-10.51C606.088,725.38,610.824,723.092,615.586,720.804z M621.333,690.978
		c6.279-3.751,12.558-7.503,18.944-11.068c0.931,4.124,1.862,8.248,2.767,12.372c-5.987,2.448-11.92,5.029-17.826,7.716
		C623.967,696.964,622.664,693.958,621.333,690.978z M646.237,706.569c0.851,3.938,1.543,8.541,2.874,12.771
		c-4.151,3.539-8.567,6.758-13.17,9.711c-1.543-5.268-3.352-10.43-5.268-15.485C635.834,711.146,641.022,708.804,646.237,706.569z
		 M647.674,649.259c2.421-0.878,4.869-1.756,7.317-2.554c1.224,2.927,2.129,5.987,3.033,9.046c-2.155,0.878-4.31,1.783-6.439,2.767
		C650.468,655.378,649.164,652.292,647.674,649.259z M638.628,586.547c-1.463-2.102-2.927-4.23-4.39-6.359
		c11.787-3.406,23.786-6.066,36.025-7.45c1.437,2.288,2.687,4.656,3.858,7.024C662.068,580.694,650.281,583.248,638.628,586.547z
		 M636.526,610.147c-3.991,1.011-7.982,2.049-11.92,3.166c-1.117-1.596-2.208-3.193-3.299-4.816c3.991-1.197,7.982-2.368,12-3.512
		C634.37,606.715,635.461,608.418,636.526,610.147z M611.622,594.343c-1.277-1.862-2.554-3.725-3.831-5.587
		c4.124-1.437,8.248-2.847,12.372-4.23c1.304,2.049,2.581,4.071,3.885,6.093C619.896,591.842,615.746,593.066,611.622,594.343z
		 M608.19,618.156c-7.503,2.341-14.98,4.736-22.35,7.397c-0.905-1.49-1.836-2.98-2.74-4.47c7.317-2.608,14.687-5.082,22.057-7.503
		C606.167,615.123,607.179,616.639,608.19,618.156z M574.373,607.007c-0.984-1.57-1.969-3.14-2.953-4.709
		c7.051-2.714,14.128-5.401,21.205-8.035c1.091,1.729,2.208,3.432,3.326,5.135C588.714,601.819,581.503,604.347,574.373,607.007z
		 M562.479,587.877c-2.022-3.273-4.044-6.572-6.04-9.871c6.705-3.007,13.383-6.04,20.088-9.073
		c2.288,3.698,4.576,7.397,6.918,11.068C576.448,582.609,569.477,585.27,562.479,587.877z M558.834,612.994
		c-9.1,3.645-18.172,7.477-27.165,11.441c-1.011-1.995-2.022-4.018-3.007-6.013c9.126-3.299,18.226-6.678,27.298-10.164
		C556.919,609.828,557.876,611.424,558.834,612.994z M521.585,603.229c-1.197-2.687-2.341-5.401-3.432-8.142
		c7.982-3.512,15.911-7.077,23.866-10.616c1.703,3.06,3.432,6.119,5.188,9.126C538.667,596.817,530.099,599.983,521.585,603.229z
		 M512.592,580.188c-1.703-4.922-3.273-9.898-4.709-14.926c6.652-3.512,13.516-6.572,20.407-9.419
		c1.916,4.869,4.044,9.685,6.332,14.447C527.279,573.563,519.909,576.836,512.592,580.188z M505.355,555.683
		c-0.506-2.102-0.984-4.204-1.41-6.306c5.561-4.896,11.946-8.381,18.758-10.802c0.532,2.049,1.091,4.124,1.729,6.173
		C517.701,547.834,511.342,551.506,505.355,555.683z M513.683,623.823c1.038,2.421,2.128,4.842,3.246,7.237
		c-3.645,1.676-7.317,3.326-10.935,5.055c-1.224-2.767-2.341-5.534-3.459-8.328C506.26,626.483,509.958,625.153,513.683,623.823z
		 M576.501,743.765c2.581-2.022,5.215-3.991,7.902-5.827c3.485,3.086,7.237,5.8,11.228,8.115c-5.374,1.25-10.776,2.182-16.203,2.714
		C578.869,746.905,577.698,745.308,576.501,743.765z M631.204,553.874c2.714,0,4.284-2.98,3.193-5.215
		c7.902,1.676,16.124,4.39,22.616,9.153c-11.095,1.676-22.057,4.364-32.779,7.689c-2.448-3.645-4.816-7.37-7.13-11.095
		C621.786,553.927,626.362,553.874,631.204,553.874z M611.249,569.785c-4.39,1.543-8.807,3.14-13.17,4.763
		c-2.687-3.938-5.481-7.796-8.275-11.627c4.789-2.208,9.632-4.284,14.687-5.853C606.593,561.377,608.881,565.608,611.249,569.785z
		 M583.126,537.751c4.896,1.011,9.738,2.102,14.607,3.193c0.266,0.772,0.532,1.543,0.825,2.315
		c-6.359,1.836-12.399,4.257-18.518,6.785c-2.288-2.953-4.603-5.88-6.971-8.807C576.448,540.145,579.827,539.001,583.126,537.751z
		 M568.413,555.098c-6.705,3.033-13.357,6.12-20.061,9.073c-2.448-4.337-4.789-8.754-6.971-13.25
		c7.077-2.341,14.234-4.39,21.392-6.519C564.608,547.994,566.47,551.559,568.413,555.098z M536.272,539.56
		c-0.559-1.384-1.117-2.741-1.65-4.124c5.242-0.931,10.616-1.41,15.991-1.437C545.77,535.702,540.981,537.591,536.272,539.56z
		 M715.494,698.188c-10.616,68.672-96.768,112.626-160.464,90.17c-3.831-1.517-2.421-7.397,1.729-6.306
		C683.247,806.61,698.785,667.138,715.494,698.188z M1146.734,690.393c-7.503-1.464-14.82-3.725-22.03-6.386
		c-2.049-7.796-3.831-15.671-5.454-23.547c14.208,4.47,4.497-5.694-1.729-8.78c-2.528-13.649-4.071-27.485-4.204-41.4
		c10.696,3.06,6.705-3.991,0.08-6.811c-0.24-14.261,3.459-28.336,4.071-42.438c-11.042-13.037-14.58,30.358-14.846,36.85
		c-6.199-3.086-12.399-6.199-18.492-9.499c1.171-3.831-3.219-7.663-4.364-2.368c-35.546-23.6-31.609-9.392-1.783,7.21
		c-2.182,11.175-2.581,22.749-2.235,34.11c-8.807-5.96-16.789-11.255-23.999-15.964c12.026-6.492,16.948-12.106,5.747-14.075
		c-5.082,2.661-10.829,4.922-16.975,6.864c-14.74-9.312-25.462-15.485-32.54-19.024c11.654-11.308,21.551-24.771,9.232-23.76
		c-17.454,18.731-33.471,23.919-49.807,28.416c-3.379-3.459-6.838-6.891-10.377-10.323c19.822-18.598,35.413-44.167,21.897-40.469
		c-8.514,12.505-20.115,21.924-32.646,30.278c-4.922-4.55-9.951-9.073-15.113-13.543c8.142-8.567,14.474-17.534,15.059-22.296
		c3.752-3.459,7.663-31.928-1.33-21.179c-3.911,13.436-11.627,26.341-21.738,36.664c-8.115-6.811-16.496-13.463-25.143-19.955
		c12.319-20.115,23.174-52.468,10.377-45.391c-4.789,13.303-13.303,25.622-23.334,35.945c-8.754-6.226-17.747-12.239-26.926-17.986
		c6.678-12.186,11.733-25.064,12.399-29.959c0.506-4.018,5.907-31.768-2.953-23.547c-3.326,17.135-11.787,32.088-21.179,46.349
		c-6.891-4.071-13.889-7.982-20.939-11.707c2.767-12.904,3.007-26.261-0.08-38.34c-0.346-2.129-4.044-2.155-4.364,0
		c-1.836,10.776-5.188,21.205-9.126,31.449c-12.745-6.199-25.702-11.787-38.792-16.629c5.774-26.979,6.359-53.346-4.177-41.32
		c-0.905,12.691-2.341,25.542-5.241,37.994c-10.43-3.539-20.913-6.572-31.476-9.073c4.63-30.039,5.295-63.031-6.279-57.896
		c-0.16,18.572-0.798,37.489-4.869,55.501c-9.685-1.916-19.396-3.326-29.081-4.204c1.357-20.434,0.213-68.352-8.993-55.022
		c-0.851,19.263-0.16,37.116-3.698,54.171c-10.376-0.452-20.726-0.24-30.997,0.639c2.714-36.345-2.341-83.119-11.707-70.72
		c1.729,23.84,0.825,48.823-2.448,72.397c-4.39,0.665-8.78,1.463-13.144,2.395c-5.162,5.587,4.55,4.55,12.239,3.778
		c-1.224,7.716-2.714,15.219-4.47,22.483c-10.35-0.213-20.727-0.08-31.076,0.399c1.596-4.31,2.953-10.829,3.964-18.492h0.293
		c1.809-0.692,2.368-3.805,0.266-4.417c3.778-33.711,1.703-83.545-11.228-68.459c-0.532,2.341-0.931,4.896,0.479,6.971
		c0.426,13.862,0.984,35.866-1.091,52.495c0.16,1.942-0.373,5.002-1.144,8.567c-6.519-0.107-12.931-0.107-19.29,0
		c-0.532-7.53-1.756-15.219-1.064-19.795c0.08-4.497-3.911-50.925-10.722-38.686c-0.186,19.662-0.16,39.218-1.011,58.854
		c-7.796,0.319-15.458,0.825-23.015,1.463c-2.182-10.776-5.029-21.631-4.23-32.673c0.239-4.922,3.166-28.735-6.386-18.305
		c-4.656,17.081-4.736,34.961-0.239,52.069c-8.142,0.878-16.15,1.942-24.026,3.193c-0.239-0.718-0.479-1.437-0.718-2.182
		c-3.964-4.497-6.412-44.406-12.079-34.961c-3.991,13.383-3.06,27.485-0.08,39.378c-7.45,1.41-14.767,2.953-21.977,4.656
		c-3.06-9.206-5.534-18.571-5.135-28.416c-0.905-5.029,0.745-36.291-8.488-25.276c-5.401,16.39-5.348,38.26-0.559,57.257
		c-6.811,1.809-13.516,3.805-20.168,5.88c-2.155-4.443-3.831-8.381-4.204-11.228c-5.295-17.321-9.259-34.828-11.361-52.788
		c-0.133-4.177-0.293-17.081-6.492-9.339c-6.865,19.503-4.683,52.468,4.842,79.101c-7.21,2.554-14.314,5.268-21.365,8.088
		c-4.497-10.19-8.168-20.673-8.328-32.088c-1.383-4.284-0.186-35.333-7.024-26.234c-2.288,18.119-5.002,36.797,1.596,54.411
		c0.665,1.703,1.596,4.763,2.794,8.461c-4.842,2.075-9.685,4.23-14.474,6.439c-5.72-10.563-11.201-21.205-15.991-32.247
		c-2.847-8.488-8.115-15.964-9.392-24.93c-0.745-3.991-7.503-3.113-7.131,0.958c-0.399,22.961,7.742,45.737,17.507,63.35
		c-10.43,5.135-20.727,10.536-30.97,16.204c-11.068-20.141-23.6-39.804-29.214-62.18c-0.266-1.57-2.953-1.224-2.794,0.399
		c1.703,11.707,7.556,45.577,17.135,70.215c-5.747,3.352-11.467,6.758-17.188,10.244c-3.698-5.295-7.237-10.723-9.765-16.789
		c-4.63-4.656-18.172-59.732-23.334-44.992c0.825,23.866,6.864,49.355,19.316,70.295c-8.434,5.295-16.842,10.723-25.25,16.257
		c-8.94-18.758-14.314-38.952-20.993-58.668c-1.836-3.991-0.931-23.653-7.902-12.931c-1.251,21.844,2.661,57.896,16.07,80.112
		c-3.884,2.608-7.769,5.215-11.654,7.876c-6.119-20.647-15.485-40.469-20.939-61.461c-3.007-9.392-6.998-18.412-7.37-28.389
		c-0.373-5.082-7.37-5.002-7.849,0c-5.641,9.499,9.286,73.94,24.398,97.859c-4.656,3.219-9.339,6.439-14.048,9.685
		c-16.124-29.693-22.19-63.191-25.569-96.449c1.995-3.326-0.851-15.804-4.736-8.301c-9.073,38.42,3.618,76.84,20.327,111.668
		c-5.454,3.805-10.935,7.609-16.469,11.441c-0.373-0.718-0.745-1.437-1.144-2.182c-9.578-20.806-17.374-42.278-25.037-63.803
		c-1.889-5.135-6.252-25.835-12.319-12.878c-0.452,39.378,11.627,70.534,23.68,89.159c-7.476,5.188-15.033,10.403-22.642,15.618
		c-0.479-2.687-1.304-5.215-2.395-7.104c-4.497-19.875-8.009-40.07-12.877-60.131c-1.384-5.162-1.729-45.072-10.723-31.901
		c-5.72,33.87-5.029,73.541,10.696,104.431c-0.745-1.304-1.49-2.581-2.261-3.885c1.224,3.033,2.554,5.401,4.496,7.503
		c-2.9,1.942-5.774,3.884-8.674,5.853c-8.913-12.425-16.017-25.941-21.339-40.336c-3.14-9.472-6.146-18.891-6.252-29.081
		c-0.665-4.018-0.426-27.538-7.024-17.374c-4.098,22.27-2.421,44.167,6.598,65c1.676,4.683,7.53,18.199,14.634,30.385
		c-3.007,1.836-5.747,3.672-8.221,5.454c-5.88-6.785-11.308-13.942-15.778-21.871c-4.763-3.725-17.108-44.699-21.897-28.788
		c2.927,19.769,10.004,37.861,22.083,53.905c1.517,2.049,3.14,3.991,4.816,5.907c-6.279,6.598-5.454,9.924,4.683,5.082
		c2.794,2.9,5.667,5.72,8.514,8.567c-4.31,2.767-8.594,5.481-12.904,8.115c-5.667,1.783-19.396,8.062-8.062,12.745
		c1.357-0.452,2.661-0.958,3.991-1.437c-0.239,5.188,3.778,11.414,9.951,12.372c303.927,88.893,688.526,232.169,938.016-45.763
		c8.275,5.428,90.01,48.211,84.769,26.979c-24.93-15.246-54.623-22.35-79.554-38.287c-0.692-2.82-4.018-4.842-7.131-4.417
		c-3.751-1.809-7.184-4.363-10.669-6.705c8.408-0.798,16.682-2.022,23.999-3.033c25.276,15.724,53.213,27.937,79.766,40.096
		c5.933,30.943,25.383,51.43,11.813,3.778C1132.313,697.736,1156.924,699.519,1146.734,690.393z M988.132,599.983
		c2.474-0.319,8.754-4.789,15.272-10.616c5.109,4.603,13.224,10.935,23.919,18.518c-8.514,2.075-17.347,3.831-25.862,5.428
		c-4.603-3.991-9.099-8.115-13.383-12.478c-0.186-0.16-0.372-0.319-0.559-0.426C987.733,600.249,987.945,600.116,988.132,599.983z
		 M981.72,603.442c0,0.585,0.186,1.197,0.665,1.809c2.687,3.485,5.587,6.785,8.541,10.004c-9.445,1.756-18.146,3.485-25.143,5.481
		c-2.714-3.113-5.454-6.199-8.275-9.233C966.288,609.562,975.44,606.289,981.72,603.442z M948.701,586.627
		c2.874,2.129,5.694,4.151,8.381,6.04c-4.443,1.277-8.913,2.714-13.49,4.523c-1.437-1.41-2.874-2.794-4.337-4.151
		C942.368,591.283,945.535,589.101,948.701,586.627z M921.11,565.155c4.337,3.512,9.153,7.37,14.102,11.228
		c-2.794,1.676-6.598,2.581-10.164,3.751c-3.725-3.219-7.503-6.332-11.334-9.419C916.161,569.093,918.635,567.204,921.11,565.155z
		 M883.887,543.976c1.756-0.346,3.751-1.729,5.854-3.858c4.763,3.459,9.419,6.998,14.022,10.536c1.224,1.091,4.417,3.831,8.78,7.476
		c-1.224,0.878-2.448,1.756-3.725,2.554c-1.33,1.117-2.927,1.916-4.576,2.607c-7.743-5.854-15.698-11.441-23.813-16.762
		C881.599,545.706,882.77,544.854,883.887,543.976z M850.735,513.565c8.062,5.082,15.991,10.297,23.76,15.671
		c-3.246,2.687-6.598,5.135-9.924,7.37c-7.476-4.443-15.059-8.7-22.775-12.691C844.749,521.361,847.782,517.769,850.735,513.565z
		 M821.521,496.404c5.72,3.14,11.388,6.359,16.975,9.685c-2.741,4.044-5.481,8.062-8.115,12.08
		c-5.109-2.475-10.244-4.869-15.458-7.157C817.477,506.408,819.685,501.486,821.521,496.404z M769.958,472.032
		c12.452,4.949,24.691,10.51,36.717,16.576c-2.288,5.375-4.63,10.723-6.891,16.044c-12.053-4.816-24.292-9.099-36.717-12.904
		C765.594,486.134,767.936,479.296,769.958,472.032z M730.154,458.596c10.111,2.794,20.115,6.04,30.012,9.685
		c-1.57,4.683-3.379,9.286-5.534,13.756c-0.851,1.809-2.261,3.911-3.751,6.12c-8.754-2.448-17.587-4.63-26.474-6.598
		C726.429,475.571,728.451,467.509,730.154,458.596z M690.67,450.295c9.179,1.33,18.305,3.086,27.352,5.215
		c-2.474,7.716-5.747,15.219-10.057,22.376c-0.08,0.106-0.106,0.213-0.186,0.346c-9.126-1.676-18.332-3.086-27.538-4.23
		C685.482,466.471,689.978,455.935,690.67,450.295z M647.594,447.341c9.791-0.08,19.556,0.319,29.294,1.277
		c-2.554,8.035-6.332,15.911-11.946,23.68c-7.423-0.692-14.873-1.197-22.323-1.543C644.907,465.008,646.556,456.733,647.594,447.341
		z M527.838,461.682c2.421,5.215,5.454,9.445,8.567,4.656c-0.053-2.022-0.213-4.044-0.452-6.066
		c6.918-1.197,13.915-2.262,20.966-3.246c-0.16,4.55-0.08,9.126,3.672,12.159c7.184-0.293,9.286-6.306,9.578-13.889
		c5.827-0.692,11.707-1.33,17.64-1.889c-1.49,6.492-2.927,13.41-2.049,17.933c-27.591,1.942-54.943,6.279-81.629,13.064
		c1.517-1.729,1.596-7.21-1.011-17.693C511.262,464.902,519.51,463.199,527.838,461.682z M550.374,489.433
		c-0.213,1.011-0.346,2.075-0.426,3.166c-10.35,1.517-20.647,3.379-30.784,5.853c0.718-1.809,1.596-4.044,1.783-6.093
		C530.791,491.189,540.609,490.205,550.374,489.433z M507.271,494.116c-1.463,3.033-2.581,6.279-3.672,8.514
		c-8.86,2.687-17.56,5.88-25.941,9.844c1.463-5.614,5.827-9.951,8.088-15.033C492.93,496.218,500.114,495.127,507.271,494.116z
		 M490.988,469.505c3.805,8.674,8.221,14.527,11.122,15.405c-3.113,0.798-6.199,1.65-9.286,2.501
		c-2.953,1.171-11.308,2.341-18.917,4.097c-0.958-5.534-2.581-10.989-4.417-16.443C476.593,473.097,483.75,471.261,490.988,469.505z
		 M470.74,500.102c-4.523,6.918-7.796,15.858-6.545,19.689c-7.051,4.364-13.702,9.366-19.875,14.9
		c2.395-9.738,5.109-19.476,8.461-28.948c3.565-1.41,7.131-2.82,10.723-4.23C465.898,501.033,468.319,500.555,470.74,500.102z
		 M455.388,479.109c2.501,5.587,5.508,10.59,8.993,14.687c-7.264,0.851-14.474,1.969-21.631,3.299
		c-1.224-3.884-3.086-8.142-5.188-12.425C443.468,482.755,449.401,480.892,455.388,479.109z M419.549,490.843
		c1.916,3.565,3.991,6.891,6.226,9.898c-7.929,1.942-15.831,4.151-23.653,6.599c-1.171-2.874-2.421-5.747-3.725-8.621
		C405.394,496.005,412.445,493.371,419.549,490.843z M386.051,503.694c1.117,2.74,2.315,5.374,3.592,7.796
		c-3.991,1.383-7.929,2.847-11.867,4.364c-1.304-2.341-2.607-4.683-3.911-6.998C377.91,507.1,381.954,505.37,386.051,503.694z
		 M359.445,515.215c1.57,2.208,3.113,4.257,4.63,6.146c-11.547,4.869-22.935,10.217-34.243,15.938
		c-0.984-2.155-1.969-4.31-3.033-6.439C337.6,525.405,348.456,520.217,359.445,515.215z M310.914,539.028
		c1.25,2.262,2.527,4.364,3.831,6.199c-5.109,2.767-10.244,5.614-15.325,8.541c-1.224-2.208-2.554-4.337-3.938-6.412
		C300.617,544.535,305.752,541.768,310.914,539.028z M281.061,555.417c0.053,0.08,0.133,0.16,0.186,0.239
		c0.984,2.634,2.155,4.869,3.406,6.785c-9.738,5.853-19.423,11.92-29.028,18.146c1.091-2.794,0.506-6.625-1.57-9.339
		C263.022,565.82,272.015,560.552,281.061,555.417z M218.908,593.119c3.219,2.394,6.332,2.261,9.099-1.41
		c-0.266-1.277-0.559-2.554-0.851-3.831c5.055-3.219,10.11-6.359,15.192-9.498c1.916,2.102,3.991,3.964,6.199,5.534
		c0.612,0.133,1.144,0.186,1.676,0.186c-14.421,9.445-28.709,19.183-42.837,29.028c-1.729-3.086-3.485-6.199-4.949-9.339
		C207.92,600.196,213.401,596.631,218.908,593.119z M215.609,624.994c-0.585,1.517-1.171,3.086-1.729,4.683
		c-0.133-1.038-0.319-2.075-0.585-3.113C214.066,626.031,214.838,625.526,215.609,624.994z M204.78,632.443
		c2.182,3.086,4.523,5.348,6.731,4.869c-2.634,9.179-4.39,17.986-4.284,20.54c-5.72,2.554-11.467,5.109-17.188,7.689
		c1.144-8.354,1.676-16.602,2.953-24.744C196.931,637.978,200.843,635.211,204.78,632.443z M192.541,610.307
		c1.65,3.246,3.299,6.492,4.975,9.685c0,0,0,0,0.027,0.027c-1.463,1.011-2.9,2.022-4.337,3.033
		c-2.501-2.182-5.268,0.479-7.796,5.481c-1.809,1.277-3.618,2.554-5.428,3.831c-0.798-3.007-2.129-6.625-4.071-10.909
		C181.473,617.703,187.007,613.978,192.541,610.307z M178.44,651.307c-1.57,8.807-1.809,16.789,0.319,19.263
		c-7.663,3.432-15.325,6.918-22.962,10.456c0.452-5.082,1.144-10.11,2.129-15.059C164.791,661.152,171.629,656.23,178.44,651.307z
		 M84.891,711.385c3.086-0.266,4.257-2.927,3.565-5.108c2.794-1.171,5.561-2.368,8.301-3.645c0.08,6.678,1.49,13.09,4.896,15.379
		C96.092,716.467,88.669,715.775,84.891,711.385z M97.795,675.626c2.102-1.357,4.39-2.873,6.838-4.576
		c2.288,3.326,4.63,6.332,6.971,8.727c-1.995,1.33-4.018,2.661-6.013,3.964C102.957,681.054,100.376,678.366,97.795,675.626z
		 M109.768,719.74c-0.585-6.998-2.82-13.702-3.698-20.62c1.836-0.559,3.512-1.836,4.576-3.459c2.82-1.49,5.614-3.06,8.408-4.656
		c-0.08,4.044,0.107,7.53,0.399,9.099c-12.026,4.55-14.208,14.98,0.931,7.397c0.825,5.481,2.395,10.776,4.364,15.911
		C119.746,722.214,114.77,720.91,109.768,719.74z M117.83,661.737c3.485-2.448,6.971-4.896,10.43-7.343
		c3.778,2.208,5.88-0.426,6.652-4.683c9.126-6.359,18.172-12.665,27.219-18.864c2.794,3.592,5.481,6.439,7.929,8.514
		c-4.284,3.007-8.541,6.013-12.798,8.993c-1.623-0.692-3.219,0.692-4.736,3.326c-9.286,6.518-18.545,12.931-27.777,19.21
		C122.832,667.697,120.145,664.717,117.83,661.737z M128.978,685.124c5.614-3.485,11.201-7.051,16.735-10.776
		c-0.958,5.481-1.357,10.164-0.958,11.973c-5.162,2.528-10.19,5.268-15.192,8.062C129.271,691.297,129.058,688.211,128.978,685.124z
		 M137.04,726.391c-2.9-7.53-4.896-15.246-6.252-23.174c4.896-2.022,9.818-4.018,14.634-6.173c0.506,2.368,0.878,5.774,3.299,6.944
		c-9.339,3.406-10.536,18.385,1.969,10.935c0.718,5.188,1.863,10.323,3.246,15.379C148.294,729.025,142.681,727.722,137.04,726.391z
		 M162.024,732.191c-0.186-0.053-0.346-0.08-0.532-0.133c-1.517-6.12-3.246-12.239-4.097-18.545
		c6.199-1.011,12.346-2.421,18.518-3.619c0.186,8.754,0.639,17.693,3.246,26.048C173.438,734.719,167.717,733.495,162.024,732.191z
		 M206.882,737.433c0.16,1.304,0.266,2.794,0.399,4.284c-6.146-1.224-12.319-2.474-18.465-3.751
		c-1.144-9.977-3.166-19.822-4.098-29.826c8.062-1.596,16.07-3.352,24.079-5.242C206.244,714.152,205.845,725.966,206.882,737.433z
		 M219.121,744.058c0.266-14.501,0.612-29.028-0.027-43.528c5.694-1.889,44.752-7.37,29.906-16.363
		c-32.141,1.49-63.563,11.255-95.065,17.747c1.224-2.873,0.905-6.093,0.958-9.179c17.135-7.956,34.349-15.725,51.697-23.174
		c2.315,30.997,15.033,14.687,14.288-6.093c17.72-6.439,30.039-21.472,1.038-11.6c1.437-11.228,3.007-22.03,6.678-32.779
		c-0.213-0.798-0.452-1.517-0.718-2.155c0.798-0.506,1.57-1.011,2.368-1.517c58.215-40.229,122.497-69.284,187.789-95.784
		c-85.886,74.924-72.583,226.795,27.777,285.116C372.349,778.035,296.733,756.723,219.121,744.058z M642.565,808.419
		c43.741-14.66,99.269-63.59,93.815-107.491c-19.582,42.704-53.266,82.64-99.056,97.886c-3.113-1.889-7.184-0.399-8.78,2.794
		c-33.311,6.252-30.784,18.412,1.676,10.51c2.022,5.508,3.113,11.68,7.29,16.044c-2.661,0.984-6.519-0.559-8.7,1.463
		c-10.19,0.107-20.434-0.213-30.598-0.825c-5.854-5.774-2.501-19.21-8.301-20.514c-8.434,0.771-4.257,14.501-2.288,19.795
		c-8.115-0.665-16.203-1.464-24.292-2.448c-0.639-1.277-0.506-2.873-1.064-4.204l-0.027-0.027c-0.08-0.133-0.133-0.293-0.16-0.372
		c0.053,0.08,0.08,0.16,0.133,0.24c-1.623-3.805-2.182-8.115-0.772-12.08c0.718-2.208-0.638-4.63-2.687-5.481
		c-9.711-1.916-8.647,14.394-6.758,20.46c-8.062-1.091-16.097-2.288-24.132-3.618c-0.319-7.609-2.9-15.112-1.171-22.802
		c0.505-2.714-0.745-5.827-3.698-6.492c-11.228,0.08-9.126,19.077-8.514,27.006c-6.545-1.144-13.064-2.341-19.609-3.565
		c1.197-1.224,1.251-7.21,1.384-6.545c1.011-2.129,0.772-9.844,1.011-9.472c-0.718-6.731,8.301-19.875-2.82-20.859
		c10.217-6.545-23.52-29.959-27.325-38.34c-0.692-0.825-1.383-1.65-2.049-2.501c-0.692-0.851-1.357-1.703-1.995-2.554
		c-1.038-1.357-2.049-2.767-3.06-4.151c-0.053-0.053-0.08-0.08-0.106-0.133c-0.931-1.357-1.862-2.741-2.767-4.124
		c-0.692-1.064-1.357-2.128-2.049-3.219c-1.517-2.501-2.953-5.029-4.31-7.609c-0.479-0.851-0.931-1.729-1.33-2.581
		c-1.41-2.794-2.714-5.614-3.938-8.487c-0.665-1.57-1.304-3.166-1.889-4.763c-0.825-2.128-1.596-4.284-2.288-6.465
		c-0.745-2.182-1.41-4.39-1.995-6.599c-0.905-3.299-1.703-6.652-2.395-10.004c-0.479-2.235-0.878-4.496-1.224-6.758
		c-0.373-2.262-0.665-4.523-0.905-6.811c-0.479-4.177-0.772-8.354-0.878-12.558c-0.053-1.543-0.08-3.06-0.08-4.603
		c0-5.428,0.293-10.829,0.851-16.23c0.24-2.474,0.559-4.922,0.958-7.37c0.373-2.501,0.798-5.002,1.304-7.476
		c0.506-2.554,1.091-5.082,1.756-7.583c3.406-13.436,8.621-26.474,15.645-38.606c2.128-4.018-3.539-9.073-6.625-5.135
		c-5.481,6.865-10.164,14.341-14.022,22.27c-0.319,0.639-0.639,1.251-0.931,1.889c-0.506,1.064-0.984,2.128-1.464,3.193
		c-0.772,1.783-1.516,3.592-2.208,5.401c-1.064,2.741-2.049,5.508-2.927,8.328c-0.239,0.745-0.479,1.49-0.692,2.235
		c-0.452,1.41-0.851,2.82-1.197,4.257c-0.452,1.623-0.851,3.299-1.251,4.922c-0.106,0.479-0.213,0.958-0.319,1.437
		c-0.319,1.463-0.612,2.927-0.905,4.39c-0.186,0.984-0.346,1.969-0.532,2.953c-0.319,1.969-0.612,3.938-0.878,5.907
		c-0.133,0.984-0.24,1.969-0.373,2.98c-0.106,0.984-0.213,1.995-0.293,2.98c-0.186,1.995-0.319,3.991-0.452,5.987
		c-0.027,0.878-0.08,1.783-0.107,2.661c-0.213,4.949-0.186,9.924,0.08,14.873c0.186,4.257,0.585,8.487,1.144,12.718
		c0.532,4.204,1.25,8.381,2.129,12.532c0.585,2.767,1.251,5.508,1.969,8.248c2.155,8.195,5.002,16.177,8.487,23.813l0.027,0.027
		c3.033,6.705,6.572,13.09,10.669,19.13c1.038,1.517,2.075,3.007,3.166,4.497c1.064,1.463,2.182,2.9,3.326,4.31
		c2.262,2.847,4.683,5.561,7.237,8.168c1.33,1.357,2.687,2.687,4.044,3.964c1.038,0.958,2.075,1.889,3.14,2.794
		c4.31,3.725,8.94,7.13,13.862,10.137c0.665,0.426,1.357,0.851,2.075,1.25c0.718,0.426,1.437,0.825,2.155,1.224
		c0.692,0.373,1.41,0.745,2.102,1.117c1.224,0.639,2.501,1.251,3.751,1.889c1.703,0.798,3.432,1.543,5.188,2.261
		c-8.913,6.146-11.388,22.749-8.674,32.966c-6.545-5.72-13.809-10.616-20.886-15.645c5.747-25.117-5.108-47.759-11.122-7.929
		c-6.412-4.709-12.691-9.578-18.625-14.82c-0.639-7.769,9.073-20.62,0.718-25.356c-8.088-0.878-8.195,11.281-9.711,16.895
		c-69.018-63.217-59.28-187.098,7.583-248.213c0.851-0.718,1.091-1.676,0.931-2.581c1.038-0.426,2.049-0.825,3.086-1.25
		c0.16,0.133,0.346,0.239,0.506,0.346c-4.337,10.643-7.37,22.296-3.14,32.38c-33.87,40.389-53.027,116.75-26.367,157.91
		c-0.266-2.208-0.452-4.39-0.639-6.625c-0.106-1.117-0.186-2.208-0.239-3.326c-0.479-6.997-0.639-14.101-0.452-21.205
		c0.027-1.836,0.107-3.672,0.213-5.534c0.399-9.233,1.41-18.465,3.007-27.564c0.293-1.836,0.639-3.645,1.011-5.454
		c0.346-1.809,0.718-3.619,1.144-5.401c0.027-0.027,0-0.027,0-0.027c1.623-7.184,3.618-14.261,6.013-21.152
		c2.368-6.891,5.108-13.623,8.275-20.088c1.57-3.246,3.246-6.412,5.029-9.525c0.772-1.357,1.57-2.714,2.395-4.044
		c0.16-0.266,0.319-0.532,0.505-0.825c1.703-2.794,3.512-5.508,5.428-8.168c0.239-0.319,0.452-0.639,0.692-0.958
		c0.878-1.277,1.809-2.501,2.794-3.725c1.064-1.41,2.155-2.767,3.299-4.124c1.117-1.357,2.262-2.661,3.485-3.964
		c12.878-14.288,28.895-25.755,48.131-32.992c4.736-1.783,9.658-3.326,14.793-4.576c2.368-0.585,4.789-1.118,7.237-1.57
		c11.414-7.077,80.432-4.417,71.705-19.902c-8.328-6.838-20.407-0.931-30.145-0.851c0.559-0.851,1.038-1.65,1.463-2.421
		c20.407-1.197,40.682-1.437,60.716-0.665c-3.166,6.598-2.847,11.707,6.705,2.953c0.027-0.027,0.053-0.027,0.08-0.053
		c0.053-0.027,0.08-0.08,0.106-0.106c0,0,0,0-0.027,0c0.585-0.718,1.384-1.517,2.235-2.368c4.151,0.213,8.275,0.506,12.372,0.798
		c-5.694,9.499-8.115,19.662,0.293,18.438c2.608-1.304,10.19-9.259,15.538-17.001c7.077,0.718,14.128,1.596,21.126,2.607
		c-14.74,17.268-4.177,30.837,9.765,6.971c4.151,3.672,8.168,7.476,12,11.467c-4.47,3.379-8.754,7.37-10.882,12.691
		c-2.661,0.665-4.896,3.858-3.14,6.731c25.622,40.256,39.005,88.52,39.112,136.093c-0.08,1.969,3.14,2.501,3.485,0.479
		c10.616-47.173-1.383-96.742-30.172-135.374c1.144-0.931,2.288-1.916,3.459-2.82c-0.452,0.346-0.931,0.718-1.41,1.091
		c3.273-2.501,5.88-5.8,8.993-8.514c86.604,88.014,49.169,261.011-67.341,303.422C647.221,819.461,644.774,813.82,642.565,808.419z
		 M720.416,500.102c45.311,10.004,88.786,26.234,129.521,49.355c-0.639,17.002,5.162,50.207,3.459,55.235
		c1.277,20.354-1.729,40.495-2.049,60.77c12.372,10.323,13.01-75.217,9.499-109.619c8.328,5.055,16.496,10.377,24.558,16.017
		c6.705,39.67,0.745,80.033,0.186,119.889c12.585,13.835,14.767-73.754,8.86-113.397c6.811,5.029,13.569,10.297,20.195,15.778
		c-0.825,7.663-1.144,15.618-1.809,18.066c-1.783,28.762-9.153,57.497-8.221,86.232c15.272,11.148,20.939-57.47,21.472-94.533
		c5.082,4.497,10.11,9.153,15.086,13.942c-4.097,17.082-2.528,57.577-5.108,64.095c8.062,7.982,15.964-29.666,15.991-53.266
		c0.319,0.346,0.639,0.665,0.958,1.011c0.851,2.767,3.193,5.667,6.093,7.21c-0.399,0.559-0.798,1.171-1.091,1.942
		c2.847,6.545,8.062,10.749,14.66,13.33c-13.649,13.569-25.383,29.214-38.659,43.076c-15.512,16.975-33.977,30.651-53.453,42.677
		c16.257-45.098-11.441-21.019-11.175,6.998c-12.505,7.583-25.596,14.341-38.5,21.259c2.581-7.423,32.513-82.906,19.928-76.547
		c-16.443,27.884-25.223,59.492-41.666,87.27c-42.757,16.842-84.29,40.149-129.548,49.142
		C790.791,765.423,813.38,582.822,720.416,500.102z M983.396,660.354c2.873-0.08,5.641-2.102,6.572-4.736
		c2.395,0.133,4.896,0.186,7.397,0.186c0.16,0.133,0.293,0.293,0.452,0.452c-14.421,19.955-33.072,36.531-53.719,49.914
		c7.37-7.769,14.314-15.991,21.312-24.106C971.556,674.908,977.755,667.83,983.396,660.354z M990.766,687.945
		c-62.605,49.887-130.771,98.338-208.835,119.996c8.381-6.705,17.215-12.798,26.367-18.412c6.518,3.086,12.372-3.698,15.831-9.499
		c31.502-15.938,65.612-27.724,93.522-50.074c31.822-18.226,67.528-34.562,88.307-66.197c1.703,1.437,3.432,2.847,5.188,4.204
		C1004.096,674.295,997.524,681.4,990.766,687.945z M981.214,636.647c7.077-1.596,15.698-3.991,24.638-6.865
		c4.31,3.698,8.727,7.29,13.303,10.643C1006.251,641.543,993.453,641.117,981.214,636.647z M1035.385,638.43
		c-6.199-3.964-12.239-8.115-18.146-12.479c8.142-2.873,16.124-5.986,23.148-9.099c8.062,5.401,17.108,11.201,27.059,17.294
		c-0.106-0.027-0.186-0.053-0.293-0.08C1056.724,634.918,1046.054,636.833,1035.385,638.43z M1053.105,649.126
		c6.572-2.82,19.955-8.567,18.412-12.505c1.65,1.011,3.326,2.022,5.028,3.033c0.825,8.035,2.155,16.017,3.938,23.919
		C1071.251,659.023,1062.098,654.208,1053.105,649.126z M1083.756,625.339c-0.106-9.472,0.373-18.944,0.479-28.416
		c5.774,3.406,11.76,6.865,18.172,9.685c-0.027,12.505,0.905,25.01,2.847,37.356c-7.157-3.964-14.314-7.849-21.392-11.946
		C1083.809,629.783,1083.783,627.574,1083.756,625.339z M1085.086,665.888c-0.16-7.264-0.825-14.607-0.931-21.897
		c7.583,4.364,15.272,8.674,23.228,12.319c1.463,7.663,3.219,15.272,5.162,22.828
		C1103.232,675.041,1094.106,670.438,1085.086,665.888z M1040.893,734.373c-19.742,12.558-34.668,32.008-54.251,45.231
		c0.745-7.45,1.171-14.367,1.277-21.764c12.824-6.678,23.893-30.757-0.16-19.104c1.995-7.184-6.385-13.436-9.179-4.523
		c-0.479,3.592-0.905,7.184-1.277,10.802c-13.729,8.78-27.751,17.108-42.065,24.93c-3.352-3.539-7.317-0.239-7.37,4.098
		c-22.296,12.345-44.539,24.824-67.155,36.557c-4.337-8.993-10.35,0.692-12.053,6.199c-15.405,7.769-31.156,15.192-47.227,21.738
		c2.315-5.135-5.587-9.366-8.993-4.31c-2.262,3.352-4.39,6.785-6.439,10.27c-25.17,9.153-51.165,15.991-77.957,18.172
		c4.044-5.561-1.064-15.006-6.891-8.275l-4.55,9.1c-102.648-2.448-117.308,5.853-3.831,8.328
		c-8.86,22.669,9.392,17.028,12.558-0.479c24.717-1.41,48.717-6.013,72.689-12c-2.9,6.146-6.04,12.399-7.477,19.077
		c-57.178,10.802-71.12,23.281-1.862,9.339c0.16,9.392,7.902,4.071,9.046-1.995c15.458-3.592,30.837-7.955,46.003-12.505
		c-2.528,5.8-9.046,21.339,1.171,21.711c10.243-4.576,12.452-18.412,17.028-27.617c53.905-13.729,86.498-55.688,6.359-16.523
		c2.448-6.545,4.789-13.117,6.944-19.716c22.749-10.403,45.018-21.817,67.075-33.578c-1.197,4.656-13.197,43.741,0.133,30.305
		C938.085,835.053,1079.126,741.93,1040.893,734.373z M833.414,850.804c-1.117,2.581-2.235,5.135-3.379,7.689
		c-15.538,6.199-31.13,12.319-47.333,16.656c2.661-6.599,5.587-13.144,8.913-19.449c16.097-4.709,31.768-10.669,47.2-17.294
		C837.006,842.529,835.197,846.68,833.414,850.804z M975.121,769.68c-0.452,7.051-1.437,13.968-2.714,20.886
		c-15.352,12.133-31.369,23.44-48.131,33.578c3.991-10.43,5.561-21.205,8.088-32.008c14.66-7.849,29.108-16.097,42.97-25.33
		C975.254,767.764,975.174,768.722,975.121,769.68z M384.428,768.962c3.007,19.449-56.965-9.924-66.969-12.372
		c-6.811-6.599-92.751-11.095-70.827-21.738C294.817,734.16,340.261,751.987,384.428,768.962z M292.822,395.884
		c-1.383,4.231-2.661,8.514-3.672,12.851c-27.484,11.388-45.391,32.114-2.022,10.589c-3.379,36.531,10.855,13.649,13.25-6.146
		c7.104-3.273,14.234-6.465,21.418-9.499c-2.394,20.141,9.578,5.853,10.882-4.55c37.462-15.272,75.722-28.549,114.515-39.963
		c1.117,5.561,6.332,2.075,6.758-1.969c19.636-5.907,40.495-8.913,59.147-17.64c7.264-11.787-21.871-3.725-27.405-3.166
		c0.372-0.745,0.745-1.463,1.091-2.182c7.583-2.927,49.249-0.293,40.282-13.809c-10.909-3.991-23.228,1.437-34.456,2.395
		c1.41-5.481,11.042-12.665,5.295-17.693c-8.887-1.251-12.691,13.889-17.268,19.982c-5.827,1.117-11.6,2.474-17.348,3.778
		c10.483-27.165-4.896-14.474-9.685,2.262c-28.549,5.215-45.71,15.618-2.927,7.876c-0.798,2.315-1.49,4.656-1.942,7.077
		c-24.052,6.785-47.865,14.66-71.199,23.6c1.277-3.113,2.128-6.386,2.98-9.578c8.78-3.086,19.795-13.596,2.315-9.525
		c5.188-22.349-3.911-11.201-7.689,1.836c-10.669,3.007-20.992,7.077-31.156,11.201c1.543-4.63,3.113-9.259,4.683-13.862
		c1.304-3.778-4.789-6.439-6.519-2.767c-3.299,6.944-6.279,13.942-9.046,21.046c-6.492,2.714-12.931,5.508-19.343,8.355
		c3.485-5.295,15.086-31.928-0.293-22.935c-6.253,9.179-11.76,19.609-16.124,30.145
		C220.611,412.088,189.721,446.357,292.822,395.884z M460.496,337.616c5.135-0.718,10.297-1.41,15.432-2.022
		c-0.452,1.144-1.011,2.288-1.33,3.485c-4.656,1.197-9.312,2.501-13.915,3.725c-0.639,0.16-1.277,0.346-1.916,0.532
		C459.326,341.42,459.858,339.505,460.496,337.616z M339.569,377.073c10.35-4.097,20.567-8.009,30.917-12.345
		c-0.506,1.623-0.958,3.246-1.277,4.896c-0.213,1.224-0.532,2.395-0.825,3.592c-10.669,4.204-21.259,8.567-31.768,13.197
		C337.547,383.273,338.558,380.16,339.569,377.073z M308.227,389.445c6.598-2.714,13.277-5.268,19.928-7.876
		c-1.144,3.326-2.208,6.678-3.219,10.057c-7.051,3.193-14.048,6.492-21.046,9.818C305.22,397.401,306.71,393.41,308.227,389.445z"/>
</g>
</svg>
